HIERARCHY
ROOT hip
{
	OFFSET 0.000000 0.000000 0.000000 
	CHANNELS 6 Xposition Yposition Zposition Xrotation Zrotation Yrotation
	JOINT abdomen
	{
		OFFSET 0.000000 3.402643 0.000000 
		CHANNELS 3 Xrotation Zrotation Yrotation
		JOINT chest
		{
			OFFSET 0.000000 8.438565 -0.680529 
			CHANNELS 3 Xrotation Zrotation Yrotation
			JOINT neck
			{
				OFFSET 0.000000 10.207942 -0.272212 
				CHANNELS 3 Xrotation Zrotation Yrotation
				JOINT head
				{
					OFFSET 0.000000 3.130431 0.000000 
					CHANNELS 3 Xrotation Zrotation Yrotation
					End Site
					{
						OFFSET 0.000000 3.130435 0.000000 
					}
				}
			}
			JOINT lCollar
			{
				OFFSET 3.470700 6.669187 -0.816635 
				CHANNELS 3 Yrotation Zrotation Xrotation
				JOINT lShldr
				{
					OFFSET 3.198488 0.000000 0.000000 
					CHANNELS 3 Zrotation Yrotation Xrotation
					JOINT lForeArm
					{
						OFFSET 10.139888 0.000000 0.000000 
						CHANNELS 3 Yrotation Zrotation Xrotation
						JOINT lHand
						{
							OFFSET 8.370511 0.000000 0.000000 
							CHANNELS 3 Zrotation Yrotation Xrotation
							End Site
							{
								OFFSET 4.083176 0.000000 0.000000 
							}
						}
					}
				}
			}
			JOINT rCollar
			{
				OFFSET -3.470700 6.669187 -0.816635 
				CHANNELS 3 Yrotation Zrotation Xrotation
				JOINT rShldr
				{
					OFFSET -3.198488 0.000000 0.000000 
					CHANNELS 3 Zrotation Yrotation Xrotation
					JOINT rForeArm
					{
						OFFSET -10.139888 0.000000 0.000000 
						CHANNELS 3 Yrotation Zrotation Xrotation
						JOINT rHand
						{
							OFFSET -8.370511 0.000000 0.000000 
							CHANNELS 3 Zrotation Yrotation Xrotation
							End Site
							{
								OFFSET -4.083176 0.000000 0.000000 
							}
						}
					}
				}
			}
		}
	}
	JOINT lThigh
	{
		OFFSET 5.308129 -1.633274 1.361059 
		CHANNELS 3 Xrotation Zrotation Yrotation
		JOINT lShin
		{
			OFFSET -2.041588 -20.007561 0.000000 
			CHANNELS 3 Xrotation Zrotation Yrotation
			JOINT lFoot
			{
				OFFSET 0.000000 -19.190928 -1.224953 
				CHANNELS 3 Xrotation Yrotation Zrotation
				End Site
				{
					OFFSET 0.000000 -2.449906 4.627600 
				}
			}
		}
	}
	JOINT rThigh
	{
		OFFSET -5.308129 -1.633274 1.361059 
		CHANNELS 3 Xrotation Zrotation Yrotation
		JOINT rShin
		{
			OFFSET 2.041588 -20.007561 0.000000 
			CHANNELS 3 Xrotation Zrotation Yrotation
			JOINT rFoot
			{
				OFFSET 0.000000 -19.190928 -1.224953 
				CHANNELS 3 Xrotation Yrotation Zrotation
				End Site
				{
					OFFSET 0.000000 -2.449906 4.627600 
				}
			}
		}
	}
}
MOTION
Frames: 16
Frame Time: 0.033333
3.616269 57.250912 2.997998 -3.535156 -9.599608 -77.921547 15.374802 -8.895908 -6.219275 9.287110 3.681641 14.502578 22.860785 -10.959824 -2.582477 -19.355469 -1.601563 54.374729 2.000000 -2.000000 0.000000 -72.333984 -33.046871 61.777340 -139.993729 35.055229 61.194508 10.746558 5.340244 -7.351395 -2.000000 2.000000 0.000000 69.794922 46.806641 76.716103 135.025742 -40.334396 91.048912 3.228040 13.646181 -10.510674 7.996761 10.780882 1.251465 3.679431 -10.104891 15.285866 -2.390110 -0.536069 1.720986 0.908401 -5.690691 5.031236 21.755568 6.040436 5.000341 -12.924482 0.801385 -3.047150 
3.600332 57.249355 2.982620 -3.564453 -9.628907 -77.929688 15.374802 -8.895908 -6.219275 9.355470 3.593750 14.590454 23.426645 -10.164039 -2.350651 -20.068359 -2.343879 54.588009 2.000000 -2.000000 0.000000 -72.539063 -32.080082 62.113953 -139.738129 35.185791 61.065231 10.523762 5.318476 -7.172377 -2.000000 2.000000 0.000000 70.097656 45.595703 77.350731 135.041534 -40.349037 91.265991 3.039783 13.559070 -10.521399 8.115138 10.742260 1.248752 3.552726 -10.029802 15.303319 -2.337174 -0.481346 1.753454 0.975932 -5.724141 5.021644 21.765720 6.119141 5.005069 -12.964108 0.799628 -3.026353 
3.583930 57.250412 2.952982 -3.564453 -9.667969 -77.960625 15.374802 -8.895908 -6.219275 9.404300 3.486328 14.736924 24.025343 -9.598099 -2.202400 -20.849611 -2.646484 54.746098 2.000000 -2.000000 0.000000 -72.763672 -31.132813 62.319172 -139.523056 35.277035 60.535782 9.643784 5.056221 -6.592622 -2.000000 2.000000 0.000000 70.556641 44.355469 78.017578 134.967468 -40.382694 91.456825 3.156627 13.148429 -10.602565 8.206392 10.735394 1.231270 3.445262 -9.978494 15.357000 -2.272154 -0.535292 1.742214 0.986638 -5.711369 5.021930 21.779510 6.137015 5.068280 -12.963794 0.808062 -3.043834 
3.561990 57.252079 2.922795 -3.583984 -9.726563 -78.019226 15.374802 -8.895908 -6.219275 9.462891 3.359375 14.912683 24.543251 -9.622350 -2.297503 -21.738285 -2.041015 54.912117 2.000000 -2.000000 0.000000 -73.037109 -30.156252 62.636723 -139.302109 35.361847 60.074970 8.900125 4.678691 -6.098867 -2.000000 2.000000 0.000000 71.181641 43.105473 78.776207 134.822311 -40.464672 91.627098 3.332957 12.805878 -10.709617 8.348193 10.750863 1.245686 3.327930 -9.939415 15.421162 -2.222275 -0.510045 1.731244 1.044166 -5.696582 5.025206 21.848726 6.176708 5.130122 -13.031776 0.797090 -3.049709 
3.542463 57.256958 2.894726 -3.613281 -9.726563 -78.056641 15.374802 -8.895908 -6.219275 9.443361 3.251954 14.981023 24.951801 -9.740774 -2.427779 -22.773439 -1.367187 55.009769 2.000000 -2.000000 0.000000 -73.408203 -29.062502 62.954235 -139.094742 35.471306 59.917274 8.428553 4.186619 -5.777308 -2.000000 2.000000 0.000000 71.914063 41.943359 79.615906 134.521057 -40.609722 91.559021 3.322988 12.786390 -10.700420 8.415174 10.748965 1.237316 3.269385 -9.894550 15.487563 -2.251341 -0.520889 1.758491 1.064805 -5.731499 5.022475 21.826439 6.255849 5.180932 -13.012330 0.808215 -3.054838 
3.515223 57.260384 2.873770 -3.632813 -9.736328 -78.107117 15.374802 -8.895908 -6.219275 9.443362 3.154297 14.932178 25.337042 -10.051920 -2.655693 -23.281254 -0.517578 55.166016 2.000000 -2.000000 0.000000 -73.808594 -27.871094 63.300785 -138.979645 35.524281 59.801483 8.062744 3.773681 -5.540833 -2.000000 2.000000 0.000000 72.578125 40.839848 80.498047 134.271149 -40.741619 91.783348 3.134430 12.591876 -10.713330 8.508722 10.726050 1.217196 3.160395 -9.851713 15.579702 -2.223814 -0.555745 1.755002 1.093048 -5.754297 5.022429 21.851971 6.304334 5.259036 -13.061170 0.808127 -3.055026 
3.494353 57.264603 2.858890 -3.642578 -9.677734 -78.173828 15.374802 -8.895908 -6.219275 9.365235 3.076172 14.736854 25.722137 -10.361597 -2.873890 -23.691406 0.136719 55.468777 2.000000 -2.000000 0.000000 -74.091797 -26.601563 63.491726 -138.963455 35.527508 59.668621 7.774339 3.361428 -5.376648 -2.000000 2.000000 0.000000 73.203125 39.921875 81.568771 134.110794 -40.857059 92.144600 3.034372 12.289549 -10.660407 8.561157 10.709690 1.225357 3.006045 -9.808912 15.658345 -2.174592 -0.538986 1.740625 1.044359 -5.787329 5.019009 21.879221 6.342957 5.365662 -13.119968 0.787791 -3.032969 
3.474946 57.264458 2.849320 -3.681640 -9.628906 -78.234055 15.374802 -8.895908 -6.219275 9.306641 2.978516 14.385271 26.106438 -10.717166 -3.136295 -24.365236 0.654297 55.927738 2.000000 -2.000000 0.000000 -74.267578 -25.380857 63.521202 -138.950500 35.534241 59.609665 7.688961 3.067851 -5.361776 -2.000000 2.000000 0.000000 73.662109 39.267582 82.578125 134.007477 -40.912926 92.474586 3.151157 11.898440 -10.595030 8.698795 10.662543 1.231571 2.712912 -9.773395 15.734465 -2.125028 -0.538716 1.761715 1.005787 -5.827345 5.015404 21.903324 6.363258 5.400173 -13.130157 0.817143 -3.039700 
3.466847 57.262321 2.837650 -3.691406 -9.570313 -78.273109 15.374802 -8.895908 -6.219275 9.306642 2.919922 13.965342 26.538458 -11.128271 -3.437891 -25.332035 1.230469 56.445320 2.000000 -2.000000 0.000000 -74.277344 -24.394531 63.466793 -138.924438 35.537758 59.677876 7.835567 2.951697 -5.507086 -2.000000 2.000000 0.000000 73.925781 38.916016 83.447266 133.976151 -40.932011 92.454681 3.505734 11.740647 -10.496483 8.795716 10.621786 1.208218 2.400682 -9.684030 15.832661 -1.979344 -0.544512 1.738216 0.966848 -5.836926 5.012851 21.882004 6.362471 5.437033 -13.178974 0.816514 -3.040169 
3.463309 57.263321 2.822858 -3.710938 -9.560546 -78.273109 15.374802 -8.895908 -6.219275 9.433596 2.841797 13.603999 26.862236 -11.557198 -3.726869 -26.152344 1.757813 56.797176 2.000000 -2.000000 0.000000 -74.238281 -23.769529 63.369144 -138.866455 35.589504 59.733898 7.953331 2.796291 -5.631152 -2.000000 2.000000 0.000000 74.003906 38.818359 83.906250 133.906631 -40.945805 92.188080 3.931078 11.933942 -10.372434 8.982771 10.594312 1.198191 2.050039 -9.621313 15.896060 -1.823096 -0.548249 1.736576 0.966847 -5.836926 5.012851 21.917696 6.342285 5.446994 -13.207799 0.794088 -3.040930 
3.464591 57.264904 2.807160 -3.681640 -9.580078 -78.273109 15.374802 -8.895908 -6.219275 9.589847 2.773438 13.340318 26.895081 -11.834392 -3.862893 -26.640627 2.119140 57.011723 2.000000 -2.000000 0.000000 -74.101563 -23.623047 63.101555 -138.808517 35.620453 59.570328 7.692998 2.491693 -5.430179 -2.000000 2.000000 0.000000 74.003906 38.925785 84.111328 133.767487 -40.995640 91.781120 3.962525 12.285352 -10.312119 9.149226 10.556024 1.216016 1.697968 -9.478234 15.920424 -1.626778 -0.544158 1.748494 0.956830 -5.778723 5.007684 21.930180 6.333694 5.446432 -13.237160 0.795707 -3.040196 
3.473637 57.267323 2.784863 -3.642578 -9.521483 -78.271484 15.374802 -8.895908 -6.219275 9.697267 2.714844 13.262181 26.431726 -11.955492 -3.813026 -26.416016 2.275390 56.953125 2.000000 -2.000000 0.000000 -73.964844 -23.857422 62.935509 -138.749634 35.629879 59.368740 7.314748 2.342634 -5.173074 -2.000000 2.000000 0.000000 73.945313 39.150394 84.039368 133.569778 -41.045322 91.380524 3.816699 12.735293 -10.271762 9.255399 10.516086 1.212664 1.288909 -9.298602 15.980067 -1.400941 -0.532590 1.742303 0.859880 -5.692002 5.029980 21.960569 6.264923 5.378989 -13.247288 0.805934 -3.034934 
3.481188 57.268661 2.764121 -3.613281 -9.482423 -78.292618 15.374802 -8.895908 -6.219275 9.814455 2.646484 13.291467 25.805079 -11.930711 -3.648875 -25.976564 2.246094 56.748051 2.000000 -2.000000 0.000000 -73.837891 -24.267578 62.857315 -138.710648 35.660629 59.396507 7.063075 2.155455 -4.982418 -2.000000 2.000000 0.000000 73.896484 39.443359 83.863625 133.436890 -41.109493 91.190727 3.541268 12.980732 -10.258278 9.421756 10.447747 1.186134 0.800994 -9.093848 16.124063 -1.145936 -0.541390 1.759538 0.761912 -5.603760 5.033368 22.027475 6.206230 5.355815 -13.286026 0.813822 -3.052813 
3.485114 57.266712 2.748333 -3.564453 -9.472656 -78.409805 15.374802 -8.895908 -6.219275 9.931641 2.597656 13.427735 25.021753 -11.912659 -3.463961 -25.117193 1.962891 56.591801 2.000000 -2.000000 0.000000 -73.710938 -24.716799 63.072090 -138.584335 35.784977 60.126331 8.045707 2.132886 -5.646106 -2.000000 2.000000 0.000000 73.828125 39.755859 83.593750 133.310715 -41.168758 91.225075 3.245092 13.040632 -10.265461 9.573967 10.376170 1.179269 0.406928 -8.895446 16.287256 -0.904842 -0.492913 1.736215 0.615545 -5.464219 5.038697 22.270428 6.035963 5.465361 -13.383970 0.821877 -3.048968 
3.492099 57.260628 2.741022 -3.515625 -9.492188 -78.730469 15.374802 -8.895908 -6.219275 9.980474 2.548828 13.652777 24.395565 -11.878215 -3.301263 -24.169924 1.542969 56.298832 2.000000 -2.000000 0.000000 -73.486328 -25.039064 63.560318 -138.423660 36.003895 61.787174 10.876301 2.157808 -7.482324 -2.000000 2.000000 0.000000 73.808594 40.136719 83.355904 133.136307 -41.250767 91.395432 2.830364 13.120438 -10.223044 9.560107 10.322083 1.169880 0.487361 -8.737806 16.715288 -0.723203 -0.536529 1.739984 0.361445 -5.261366 5.074147 22.730555 5.678920 5.754425 -13.549368 0.802768 -3.059407 
3.499720 57.243877 2.754498 -3.427734 -9.619140 -79.472656 15.374802 -8.895908 -6.219275 10.058593 2.548828 14.111328 23.873795 -11.986742 -3.233513 -22.792969 1.054688 55.869240 2.000000 -2.000000 0.000000 -73.164063 -25.214842 64.052734 -138.326920 36.201649 63.665955 14.647213 2.428335 -9.733250 -2.000000 2.000000 0.000000 73.710938 40.625000 83.173828 132.897446 -41.398567 91.889290 2.127134 12.654133 -10.333780 9.157740 10.340051 1.204719 1.619704 -8.776481 17.343731 -0.653494 -0.487204 1.748541 0.010232 -4.979164 5.100651 23.537895 5.180470 6.452473 -13.842739 0.812783 -3.055134 
